<svg enable-background="new 0 0 512 512" viewBox="0 0 512 512" xmlns="http://www.w3.org/2000/svg">
    <path d="m244.364 372.364c-12.853 0-23.273 10.42-23.273 23.273v93.091c0 12.853 10.42 23.273 23.273 23.273s23.273-10.42 23.273-23.273v-93.091c-.001-12.853-10.421-23.273-23.273-23.273z" fill="#2d50a7" />
    <path d="m244.364 0c-12.853 0-23.273 10.42-23.273 23.273v93.091c0 12.853 10.42 23.273 23.273 23.273s23.273-10.42 23.273-23.273v-93.091c-.001-12.853-10.421-23.273-23.273-23.273z" fill="#73a1fb" />
    <path d="m359.557 338.281c-9.087-9.089-23.824-9.089-32.912 0-9.089 9.087-9.089 23.824 0 32.912l65.826 65.826c4.544 4.544 10.499 6.816 16.455 6.816s11.913-2.271 16.457-6.816c9.089-9.089 9.089-23.824 0-32.912z" fill="#355ec9" />
    <path d="m81.455 232.727h-46.546c-12.853 0-23.273 10.42-23.273 23.273s10.42 23.273 23.273 23.273h46.545c12.853 0 23.273-10.42 23.273-23.273s-10.42-23.273-23.272-23.273z" fill="#c4d9fd" />
    <path d="m96.256 74.982c-9.087-9.089-23.824-9.089-32.912 0s-9.089 23.825 0 32.912l65.826 65.825c4.544 4.544 10.501 6.817 16.455 6.817 5.956 0 11.913-2.273 16.455-6.817 9.089-9.089 9.089-23.824 0-32.912z" fill="#c4d9fd" />
    <path d="m477.091 232.727h-93.091c-12.853 0-23.273 10.42-23.273 23.273s10.42 23.273 23.273 23.273h93.091c12.853 0 23.273-10.42 23.273-23.273s-10.42-23.273-23.273-23.273z" fill="#3d6deb" />
    <path
        d="m392.471 74.982-65.826 65.825c-9.089 9.087-9.089 23.824 0 32.912 4.544 4.544 10.501 6.817 16.455 6.817 5.955 0 11.913-2.273 16.457-6.817l65.826-65.825c9.089-9.087 9.089-23.824 0-32.912-9.087-9.089-23.823-9.089-32.912 0z"
        fill="#5286fa"
    />
</svg>
